<svg width="1701" height="342" viewBox="0 0 1701 342" fill="none" xmlns="http://www.w3.org/2000/svg">
<path d="M65.6033 71.1006L235.975 71.6672C213.553 93.7116 189.279 114.956 163.152 135.398L167.636 118.642H87.1631L50.2034 154.95L49.8709 259.078L86.6087 294.817H167.316L204.51 258.979V240.278L255.022 219.05V278.444L190.367 341.633H63.3365L0 279.109V135.484L65.6033 71.1006Z" fill="#10251C"/>
<path d="M273.77 70.8633H323.53L309.818 101.034C271.799 126.923 234.199 153.209 197.018 179.894L296.907 134.311C289.359 154.754 281.298 168.313 272.723 174.991C252.913 190.206 230.527 205.002 204.816 215.166L110.89 250.512C117.074 228.795 124.146 208.283 132.104 188.974L273.77 70.8633Z" fill="#B8E94E"/>
<path d="M356.019 0L331.354 52.3841H295.097L356.019 0Z" fill="#B8E94E"/>
<path d="M406.955 256.921C399.476 256.921 392.591 255.69 386.298 253.227C380.005 250.765 374.533 247.345 369.882 242.967C365.231 238.498 361.628 233.3 359.075 227.372C356.521 221.353 355.244 214.786 355.244 207.673C355.244 200.559 356.521 194.038 359.075 188.11C361.628 182.091 365.231 176.893 369.882 172.515C374.533 168.046 380.005 164.581 386.298 162.118C392.591 159.656 399.431 158.425 406.818 158.425C414.296 158.425 421.136 159.656 427.338 162.118C433.631 164.581 439.103 168.046 443.754 172.515C448.405 176.893 452.007 182.091 454.561 188.11C457.115 194.038 458.391 200.559 458.391 207.673C458.391 214.786 457.115 221.353 454.561 227.372C452.007 233.391 448.405 238.59 443.754 242.967C439.103 247.345 433.631 250.765 427.338 253.227C421.136 255.69 414.342 256.921 406.955 256.921ZM406.818 241.326C411.651 241.326 416.12 240.505 420.224 238.863C424.328 237.222 427.885 234.896 430.895 231.886C433.904 228.786 436.23 225.229 437.871 221.216C439.604 217.112 440.471 212.598 440.471 207.673C440.471 202.748 439.604 198.279 437.871 194.266C436.23 190.162 433.904 186.606 430.895 183.596C427.885 180.495 424.328 178.124 420.224 176.482C416.12 174.841 411.651 174.02 406.818 174.02C401.984 174.02 397.515 174.841 393.411 176.482C389.399 178.124 385.842 180.495 382.741 183.596C379.731 186.606 377.36 190.162 375.627 194.266C373.986 198.279 373.165 202.748 373.165 207.673C373.165 212.506 373.986 216.975 375.627 221.079C377.36 225.183 379.731 228.786 382.741 231.886C385.751 234.896 389.307 237.222 393.411 238.863C397.515 240.505 401.984 241.326 406.818 241.326Z" fill="#10251C"/>
<path d="M518.281 255.552V159.792H557.543C570.311 159.792 580.297 162.802 587.502 168.821C594.798 174.84 598.446 183.185 598.446 193.855C598.446 200.878 596.804 206.942 593.521 212.05C590.238 217.066 585.541 220.942 579.431 223.678C573.412 226.322 566.161 227.645 557.68 227.645H528.131L536.065 219.574V255.552H518.281ZM580.936 255.552L556.722 220.805H575.737L600.088 255.552H580.936ZM536.065 221.489L528.131 213.007H556.859C564.702 213.007 570.584 211.32 574.506 207.946C578.519 204.571 580.525 199.874 580.525 193.855C580.525 187.745 578.519 183.048 574.506 179.765C570.584 176.482 564.702 174.84 556.859 174.84H528.131L536.065 166.085V221.489Z" fill="#10251C"/>
<path d="M659.384 255.552V159.792H677.168V255.552H659.384Z" fill="#10251C"/>
<path d="M788.842 256.921C781.364 256.921 774.478 255.735 768.185 253.364C761.984 250.902 756.557 247.482 751.906 243.104C747.255 238.635 743.653 233.391 741.099 227.372C738.545 221.353 737.269 214.786 737.269 207.673C737.269 200.559 738.545 193.993 741.099 187.974C743.653 181.954 747.255 176.756 751.906 172.378C756.649 167.91 762.166 164.49 768.459 162.118C774.752 159.656 781.637 158.425 789.116 158.425C797.233 158.425 804.529 159.747 811.004 162.392C817.57 165.037 823.088 168.913 827.557 174.02L816.339 184.964C812.6 181.225 808.541 178.489 804.164 176.756C799.877 174.932 795.135 174.02 789.937 174.02C784.921 174.02 780.269 174.841 775.983 176.482C771.697 178.124 768.003 180.45 764.902 183.459C761.801 186.469 759.385 190.026 757.652 194.13C756.01 198.234 755.189 202.748 755.189 207.673C755.189 212.506 756.01 216.975 757.652 221.079C759.385 225.183 761.801 228.786 764.902 231.886C768.003 234.896 771.651 237.222 775.846 238.863C780.041 240.505 784.693 241.326 789.8 241.326C794.542 241.326 799.102 240.596 803.48 239.137C807.949 237.586 812.189 235.033 816.202 231.476L826.325 244.746C821.309 248.758 815.473 251.814 808.815 253.911C802.249 255.918 795.591 256.921 788.842 256.921ZM826.325 244.746L809.499 242.42V206.578H826.325V244.746Z" fill="#10251C"/>
<path d="M890.821 255.552V159.792H908.605V255.552H890.821Z" fill="#10251C"/>
<path d="M975.546 255.552V159.792H990.183L1050.24 233.527H1042.99V159.792H1060.64V255.552H1046L985.943 181.817H993.193V255.552H975.546Z" fill="#10251C"/>
<path d="M1194.65 255.552V159.792H1212.43V255.552H1194.65ZM1127.34 255.552V159.792H1145.12V255.552H1127.34ZM1143.61 214.512V199.327H1196.01V214.512H1143.61Z" fill="#10251C"/>
<path d="M1440.13 255.552L1408.39 159.792H1426.86L1455.18 246.386H1446.01L1475.42 159.792H1491.84L1520.43 246.386H1511.54L1540.53 159.792H1557.5L1525.76 255.552H1506.89L1480.76 177.439H1485.68L1459.14 255.552H1440.13Z" fill="#10251C"/>
<path d="M1628.9 232.98L1627.94 211.913L1678.15 159.792H1698.12L1656.39 204.115L1646.54 214.922L1628.9 232.98ZM1613.03 255.552V159.792H1630.81V255.552H1613.03ZM1679.78 255.552L1643.12 211.913L1654.89 198.917L1700.58 255.552H1679.78Z" fill="#10251C"/>
<path d="M1265.58 255.552L1308.67 159.792H1326.19L1369.41 255.552H1350.81L1313.73 169.231H1320.85L1283.91 255.552H1265.58Z" fill="#10251C"/>
<path d="M1317.62 215.953L1337.42 255.553H1299.62L1317.62 215.953Z" fill="#B8E94E"/>
</svg>
